<svg width="64" height="64" viewBox="0 0 64 64" fill="none" xmlns="http://www.w3.org/2000/svg">
<path d="M63.0488 13.1652C60.8221 14.1519 58.4301 14.8185 55.9154 15.1199C58.5101 13.5673 60.4513 11.1238 61.3768 8.24519C58.939 9.69316 56.271 10.7124 53.4888 11.2585C51.6178 9.26083 49.1396 7.93673 46.439 7.49179C43.7383 7.04685 40.9664 7.50597 38.5534 8.79787C36.1404 10.0898 34.2215 12.1422 33.0945 14.6364C31.9675 17.1306 31.6955 19.9272 32.3208 22.5919C27.3813 22.3438 22.5491 21.06 18.1379 18.8236C13.7267 16.5872 9.83501 13.4483 6.71544 9.61053C5.64877 11.4505 5.03544 13.5839 5.03544 15.8559C5.03425 17.9012 5.53792 19.9152 6.50178 21.7191C7.46563 23.5231 8.85987 25.0613 10.5608 26.1972C8.58817 26.1344 6.6591 25.6014 4.9341 24.6425V24.8025C4.9339 27.6712 5.92619 30.4515 7.74259 32.6718C9.55899 34.8922 12.0876 36.4157 14.8994 36.9839C13.0695 37.4791 11.151 37.552 9.28877 37.1972C10.0821 39.6655 11.6274 41.8239 13.7084 43.3703C15.7894 44.9167 18.3019 45.7737 20.8941 45.8212C16.4937 49.2756 11.0591 51.1494 5.46477 51.1412C4.47378 51.1415 3.48364 51.0836 2.49944 50.9679C8.17804 54.619 14.7883 56.5567 21.5394 56.5492C44.3928 56.5492 56.8861 37.6212 56.8861 21.2052C56.8861 20.6719 56.8728 20.1332 56.8488 19.5999C59.2789 17.8425 61.3765 15.6662 63.0434 13.1732L63.0488 13.1652Z" fill="white"/>
</svg>
