<svg width="64" height="64" viewBox="0 0 64 64" fill="none" xmlns="http://www.w3.org/2000/svg">
<path fill-rule="evenodd" clip-rule="evenodd" d="M19.9067 2.84269C23.0347 2.69869 24.032 2.66669 32 2.66669C39.968 2.66669 40.9653 2.70135 44.0907 2.84269C47.216 2.98402 49.3493 3.48269 51.216 4.20535C53.1707 4.94402 54.944 6.09869 56.4107 7.59202C57.904 9.05602 59.056 10.8267 59.792 12.784C60.5173 14.6507 61.0133 16.784 61.1573 19.904C61.3013 23.0374 61.3333 24.0347 61.3333 32C61.3333 39.968 61.2987 40.9654 61.1573 44.0933C61.016 47.2134 60.5173 49.3467 59.792 51.2134C59.056 53.1709 57.9021 54.9445 56.4107 56.4107C54.944 57.904 53.1707 59.056 51.216 59.792C49.3493 60.5174 47.216 61.0134 44.096 61.1573C40.9653 61.3013 39.968 61.3334 32 61.3334C24.032 61.3334 23.0347 61.2987 19.9067 61.1573C16.7867 61.016 14.6533 60.5174 12.7867 59.792C10.8291 59.0559 9.05552 57.902 7.58933 56.4107C6.09701 54.9458 4.94217 53.173 4.20533 51.216C3.48267 49.3493 2.98667 47.216 2.84267 44.096C2.69867 40.9627 2.66667 39.9654 2.66667 32C2.66667 24.032 2.70133 23.0347 2.84267 19.9094C2.984 16.784 3.48267 14.6507 4.20533 12.784C4.94326 10.8269 6.09898 9.05419 7.592 7.58935C9.05611 6.09736 10.8279 4.94254 12.784 4.20535C14.6507 3.48269 16.784 2.98669 19.904 2.84269H19.9067ZM43.8533 8.12269C40.76 7.98135 39.832 7.95202 32 7.95202C24.168 7.95202 23.24 7.98135 20.1467 8.12269C17.2853 8.25335 15.7333 8.73069 14.6987 9.13335C13.3307 9.66669 12.352 10.2987 11.3253 11.3254C10.3521 12.2722 9.60315 13.4248 9.13333 14.6987C8.73067 15.7334 8.25333 17.2854 8.12267 20.1467C7.98133 23.24 7.952 24.168 7.952 32C7.952 39.832 7.98133 40.76 8.12267 43.8534C8.25333 46.7147 8.73067 48.2667 9.13333 49.3014C9.60267 50.5734 10.352 51.728 11.3253 52.6747C12.272 53.648 13.4267 54.3974 14.6987 54.8667C15.7333 55.2694 17.2853 55.7467 20.1467 55.8774C23.24 56.0187 24.1653 56.048 32 56.048C39.8347 56.048 40.76 56.0187 43.8533 55.8774C46.7147 55.7467 48.2667 55.2694 49.3013 54.8667C50.6693 54.3334 51.648 53.7014 52.6747 52.6747C53.648 51.728 54.3973 50.5734 54.8667 49.3014C55.2693 48.2667 55.7467 46.7147 55.8773 43.8534C56.0187 40.76 56.048 39.832 56.048 32C56.048 24.168 56.0187 23.24 55.8773 20.1467C55.7467 17.2854 55.2693 15.7334 54.8667 14.6987C54.3333 13.3307 53.7013 12.352 52.6747 11.3254C51.7278 10.3522 50.5752 9.60325 49.3013 9.13335C48.2667 8.73069 46.7147 8.25335 43.8533 8.12269ZM28.2533 41.0427C30.3458 41.9137 32.6757 42.0313 34.8451 41.3753C37.0146 40.7193 38.889 39.3305 40.1483 37.446C41.4075 35.5615 41.9735 33.2983 41.7495 31.043C41.5254 28.7876 40.5253 26.6799 38.92 25.08C37.8966 24.0573 36.6592 23.2742 35.2969 22.7871C33.9345 22.3 32.4811 22.121 31.0413 22.263C29.6015 22.405 28.2111 22.8645 26.9701 23.6084C25.7292 24.3522 24.6686 25.362 23.8648 26.565C23.061 27.7679 22.5338 29.1341 22.3214 30.5652C22.1089 31.9964 22.2164 33.4568 22.6361 34.8414C23.0558 36.226 23.7773 37.5003 24.7486 38.5726C25.7199 39.6449 26.9169 40.4885 28.2533 41.0427ZM21.3387 21.3387C22.7387 19.9386 24.4009 18.828 26.2301 18.0703C28.0594 17.3126 30.02 16.9226 32 16.9226C33.98 16.9226 35.9406 17.3126 37.7699 18.0703C39.5991 18.828 41.2613 19.9386 42.6613 21.3387C44.0614 22.7388 45.172 24.4009 45.9297 26.2301C46.6874 28.0594 47.0774 30.02 47.0774 32C47.0774 33.98 46.6874 35.9406 45.9297 37.7699C45.172 39.5992 44.0614 41.2613 42.6613 42.6614C39.8338 45.4889 35.9988 47.0774 32 47.0774C28.0012 47.0774 24.1662 45.4889 21.3387 42.6614C18.5111 39.8338 16.9226 35.9988 16.9226 32C16.9226 28.0012 18.5111 24.1662 21.3387 21.3387ZM50.4213 19.168C50.7683 18.8407 51.046 18.4472 51.2381 18.0106C51.4303 17.5741 51.5328 17.1034 51.5398 16.6265C51.5467 16.1496 51.4579 15.6761 51.2786 15.2342C51.0993 14.7922 50.8332 14.3907 50.4959 14.0535C50.1586 13.7162 49.7571 13.45 49.3152 13.2707C48.8732 13.0914 48.3998 13.0026 47.9228 13.0096C47.4459 13.0165 46.9753 13.1191 46.5387 13.3112C46.1022 13.5033 45.7086 13.7811 45.3813 14.128C44.7448 14.8028 44.3963 15.699 44.4099 16.6265C44.4234 17.554 44.7978 18.4397 45.4537 19.0956C46.1097 19.7515 46.9954 20.126 47.9228 20.1395C48.8503 20.153 49.7466 19.8045 50.4213 19.168Z" fill="white"/>
</svg>
