<svg width="64" height="64" viewBox="0 0 64 64" fill="none" xmlns="http://www.w3.org/2000/svg">
<g clip-path="url(#clip0_49_365)">
<path d="M32.204 7.99597H32.56C35.848 8.00797 52.508 8.12797 57 9.33597C58.358 9.70465 59.5954 10.4233 60.5886 11.42C61.5819 12.4167 62.2961 13.6567 62.66 15.016C63.064 16.536 63.348 18.548 63.54 20.624L63.58 21.04L63.668 22.08L63.7 22.496C63.96 26.152 63.992 29.576 63.996 30.324V30.624C63.992 31.4 63.956 35.056 63.668 38.864L63.636 39.284L63.6 39.7C63.4 41.988 63.104 44.26 62.66 45.932C62.2972 47.2918 61.5834 48.5323 60.5899 49.5292C59.5965 50.5262 58.3585 51.2444 57 51.612C52.36 52.86 34.724 52.948 32.28 52.952H31.712C30.476 52.952 25.364 52.928 20.004 52.744L19.324 52.72L18.976 52.704L18.292 52.676L17.608 52.648C13.168 52.452 8.94 52.136 6.992 51.608C5.63396 51.2408 4.39626 50.5231 3.4029 49.5269C2.40953 48.5308 1.69539 47.291 1.332 45.932C0.888 44.264 0.592 41.988 0.392 39.7L0.36 39.28L0.328 38.864C0.13059 36.1536 0.0211995 33.4375 0 30.72L0 30.232C0.008 29.372 0.04 26.4 0.256 23.12L0.284 22.708L0.296 22.5L0.328 22.084L0.416 21.044L0.456 20.628C0.648 18.552 0.932 16.536 1.336 15.02C1.69877 13.6602 2.41265 12.4196 3.40605 11.4227C4.39946 10.4258 5.63748 9.70754 6.996 9.33997C8.944 8.81997 13.172 8.49997 17.612 8.29997L18.292 8.27197L18.98 8.24797L19.324 8.23597L20.008 8.20797C23.8148 8.08414 27.6232 8.0148 31.432 7.99997H32.204V7.99597ZM25.6 20.836V40.108L42.228 30.476L25.6 20.836Z" fill="white"/>
</g>
<defs>
<clipPath id="clip0_49_365">
<rect width="64" height="64" fill="white"/>
</clipPath>
</defs>
</svg>
